<svg width="230" height="230" viewBox="0 0 230 230" fill="none" xmlns="http://www.w3.org/2000/svg">
<rect width="230" height="230" rx="115" fill="#216FB5"/>
<g clip-path="url(#clip0_401_2537)">
<path opacity="0.1" d="M179.272 90C191.405 90 200.339 93 206.072 99C211.805 105 214.672 112.867 214.672 122.6V136.6C214.672 147.533 211.739 156 205.872 162C200.005 167.867 191.272 170.8 179.672 170.8H103.672C96.7385 170.8 93.2719 174.6 93.2719 182.2V199.2C93.2719 202 94.6052 203.4 97.2719 203.4H209.872C212.939 203.4 214.472 204.867 214.472 207.8V225.6C214.472 228.533 212.939 230 209.872 230H82.2719C75.4719 230 70.6719 228.667 67.8719 226C65.0719 223.2 63.6719 218.867 63.6719 213V182.2C63.6719 171.133 66.6052 162.667 72.4719 156.8C78.3385 150.8 87.0719 147.8 98.6719 147.8H174.672C181.605 147.8 185.072 144.067 185.072 136.6V128C185.072 124.533 184.272 121.8 182.672 119.8C181.072 117.667 178.339 116.6 174.472 116.6H73.2719C70.3385 116.6 68.8719 115.133 68.8719 112.2V94.4C68.8719 91.4667 70.3385 90 73.2719 90H179.272Z" fill="white"/>
</g>
<defs>
<clipPath id="clip0_401_2537">
<rect width="182" height="140" fill="white" transform="translate(48 90)"/>
</clipPath>
</defs>
</svg>
