<svg width="230" height="230" viewBox="0 0 230 230" fill="none" xmlns="http://www.w3.org/2000/svg">
<rect width="230" height="230" rx="115" fill="#216FB5"/>
<g clip-path="url(#clip0_401_2541)">
<path opacity="0.1" d="M172.723 90C186.456 90 196.189 92.7333 201.923 98.2C207.789 103.667 210.723 111.933 210.723 123V132.6C210.723 143.667 206.789 152.133 198.923 158C207.456 163.467 211.723 172.067 211.723 183.8V195.4C211.723 200.733 211.123 205.533 209.923 209.8C208.723 214.067 206.723 217.733 203.923 220.8C201.123 223.733 197.456 226 192.923 227.6C188.389 229.2 182.856 230 176.323 230H69.1227C66.1893 230 64.7227 228.533 64.7227 225.6V207.8C64.7227 204.867 66.1893 203.4 69.1227 203.4H167.323C172.523 203.4 176.256 202.4 178.523 200.4C180.923 198.4 182.123 195.267 182.123 191V183.6C182.123 179.467 180.856 176.333 178.323 174.2C175.923 171.933 171.389 170.8 164.723 170.8H70.3227C67.256 170.8 65.7227 169.333 65.7227 166.4V152.2C65.7227 149.267 67.256 147.8 70.3227 147.8H164.723C171.389 147.8 175.923 146.8 178.323 144.8C180.723 142.667 181.923 139.667 181.923 135.8V128.8C181.923 124.533 180.723 121.467 178.323 119.6C176.056 117.6 172.256 116.6 166.923 116.6H69.1227C66.1893 116.6 64.7227 115.133 64.7227 112.2V94.4C64.7227 91.4667 66.1893 90 69.1227 90H172.723Z" fill="white"/>
</g>
<defs>
<clipPath id="clip0_401_2541">
<rect width="182" height="140" fill="white" transform="translate(48 90)"/>
</clipPath>
</defs>
</svg>
