<svg width="230" height="230" viewBox="0 0 230 230" fill="none" xmlns="http://www.w3.org/2000/svg">
<rect width="230" height="230" rx="115" fill="#216FB5"/>
<g clip-path="url(#clip0_401_1140)">
<path opacity="0.1" d="M154.073 96C157.406 93.7333 160.406 92.2 163.073 91.4C165.873 90.4667 169.539 90 174.073 90H185.873C191.739 90 196.073 91.4 198.873 94.2C201.806 96.8667 203.273 102.267 203.273 110.4V176.2H219.673C222.606 176.2 224.073 177.733 224.073 180.8V197C224.073 199.933 222.606 201.4 219.673 201.4H203.273V225.6C203.273 228.533 201.806 230 198.873 230H178.273C175.206 230 173.673 228.533 173.673 225.6V201.4H68.4727C64.206 201.4 61.006 200.267 58.8727 198C56.7393 195.733 55.6727 192.8 55.6727 189.2V174C55.6727 170.267 56.206 167.2 57.2727 164.8C58.3393 162.267 60.406 159.933 63.4727 157.8L154.073 96ZM88.6727 174.8C88.6727 175.733 89.206 176.2 90.2727 176.2H173.673V118.8C173.673 117.333 173.139 116.6 172.073 116.6H170.873C169.539 116.6 168.073 117.133 166.473 118.2L89.8727 170.8C89.0727 171.467 88.6727 172.4 88.6727 173.6V174.8Z" fill="white"/>
</g>
<defs>
<clipPath id="clip0_401_1140">
<rect width="182" height="140" fill="white" transform="translate(48 90)"/>
</clipPath>
</defs>
</svg>
