<svg width="230" height="230" viewBox="0 0 230 230" fill="none" xmlns="http://www.w3.org/2000/svg">
<rect width="230" height="230" rx="115" fill="#216FB5"/>
<g clip-path="url(#clip0_401_4)">
<path opacity="0.1" d="M205.072 90C208.005 90 209.472 91.4667 209.472 94.4V112.2C209.472 115.133 208.005 116.6 205.072 116.6H97.2719C94.6052 116.6 93.2719 118 93.2719 120.8V143.6C93.2719 146.4 94.6052 147.8 97.2719 147.8H179.672C191.272 147.8 200.005 150.8 205.872 156.8C211.739 162.667 214.672 171.067 214.672 182V197.4C214.672 207.133 211.805 215 206.072 221C200.339 227 191.405 230 179.272 230H68.4719C65.4052 230 63.8719 228.533 63.8719 225.6V207.8C63.8719 204.867 65.4052 203.4 68.4719 203.4H174.472C178.339 203.4 181.072 202.4 182.672 200.4C184.272 198.267 185.072 195.467 185.072 192V182C185.072 174.533 181.605 170.8 174.672 170.8H82.2719C75.4719 170.8 70.6719 169.467 67.8719 166.8C65.0719 164.133 63.6719 159.8 63.6719 153.8V107C63.6719 101.133 65.0719 96.8667 67.8719 94.2C70.6719 91.4 75.4719 90 82.2719 90H205.072Z" fill="white"/>
</g>
<defs>
<clipPath id="clip0_401_4">
<rect width="182" height="140" fill="white" transform="translate(48 90)"/>
</clipPath>
</defs>
</svg>
