<svg width="255" height="76" viewBox="0 0 255 76" fill="none" xmlns="http://www.w3.org/2000/svg">
<g opacity="0.67">
<path fill-rule="evenodd" clip-rule="evenodd" d="M89.5854 47.142L88.272 50.0734C88.0519 50.5647 87.6021 50.8609 87.0766 50.8609H86.3211C85.8576 50.8609 85.4596 50.636 85.2107 50.2336C84.9618 49.831 84.9322 49.3643 85.1283 48.9321L90.0883 37.9933C90.384 37.3415 90.8594 36.7868 91.4381 36.3864C91.4549 36.3748 91.4692 36.3654 91.4865 36.3544C92.1302 35.9498 92.8736 35.7539 93.6255 35.7539C94.3867 35.7539 95.1433 35.9447 95.7881 36.3695C96.3881 36.7649 96.8711 37.3213 97.1829 37.9951L102.124 48.9338C102.319 49.3661 102.289 49.8323 102.04 50.2343C101.791 50.6364 101.393 50.8609 100.93 50.8609H100.194C99.6701 50.8609 99.2222 50.5673 99.0008 50.0787L97.6698 47.142H89.5854ZM106.949 39.1853H101.872C101.147 39.1853 100.555 38.5763 100.555 37.8299V37.2265C100.555 36.4801 101.147 35.871 101.872 35.871H115.376C116.101 35.871 116.692 36.4801 116.692 37.2265V37.8299C116.692 38.5763 116.101 39.1853 115.376 39.1853H110.279V49.5054C110.279 50.252 109.688 50.8609 108.963 50.8609H108.265C107.54 50.8609 106.949 50.252 106.949 49.5054V39.1853ZM135.713 40.4228L129.355 48.5468C129.096 48.877 128.742 49.0517 128.33 49.0517C127.918 49.0517 127.564 48.877 127.305 48.5468L120.947 40.4228V49.5054C120.947 50.252 120.356 50.8609 119.631 50.8609H118.933C118.208 50.8609 117.617 50.252 117.617 49.5054V38.4159C117.617 37.8237 117.796 37.2651 118.17 36.8149C118.493 36.4011 118.958 36.124 119.452 35.9875C119.989 35.8278 120.586 35.8423 121.116 36.0255C121.629 36.2032 122.102 36.5075 122.454 36.9343C122.463 36.9444 122.47 36.9533 122.478 36.9639L128.33 44.4607L134.182 36.9639C134.19 36.9531 134.198 36.9441 134.206 36.9338C134.559 36.5071 135.031 36.2032 135.545 36.0255C136.083 35.8392 136.663 35.8309 137.185 35.9812C137.68 36.113 138.125 36.3877 138.464 36.7835C138.854 37.2401 139.043 37.8101 139.043 38.4159V49.5054C139.043 50.252 138.452 50.8609 137.727 50.8609H137.03C136.304 50.8609 135.713 50.252 135.713 49.5054V40.4228ZM156.455 50.8609H147.291C144.788 50.8609 142.293 49.0681 142.293 46.3284V40.4206C142.293 37.6831 144.785 35.871 147.291 35.871H156.455C158.961 35.871 161.453 37.6831 161.453 40.4206V46.3284C161.453 49.0681 158.958 50.8609 156.455 50.8609ZM179.095 37.2265V37.8299C179.095 38.5763 178.504 39.1853 177.779 39.1853H168.111C167.453 39.1853 166.424 39.6062 166.424 40.4206V46.3284C166.424 47.1404 167.459 47.547 168.111 47.547H177.779C178.504 47.547 179.095 48.1561 179.095 48.9025V49.5054C179.095 50.252 178.504 50.8609 177.779 50.8609H168.111C165.608 50.8609 163.113 49.0681 163.113 46.3284V40.4206C163.113 37.6831 165.605 35.871 168.111 35.871H177.779C178.504 35.871 179.095 36.4801 179.095 37.2265ZM190.441 50.8609H185.773C183.268 50.8609 180.776 49.0631 180.776 46.3227V40.4261C180.776 37.6879 183.265 35.871 185.773 35.871H190.511C190.702 35.3625 191.181 35 191.741 35H192.438C192.998 35 193.477 35.3625 193.668 35.871H198.231C200.74 35.871 203.229 37.6879 203.229 40.4261V46.3227C203.229 49.0633 200.737 50.8609 198.231 50.8609H193.738C193.637 51.5052 193.092 52 192.438 52H191.741C191.087 52 190.542 51.5052 190.441 50.8609ZM208.239 41.7172H217.618C218.343 41.7172 218.934 42.3263 218.934 43.0729V43.6761C218.934 44.4225 218.343 45.0315 217.618 45.0315H208.236L208.23 47.4011C208.285 47.5022 208.509 47.547 208.608 47.547H218.354C219.079 47.547 219.671 48.1561 219.671 48.9025V49.5054C219.671 50.252 219.079 50.8609 218.354 50.8609H208.608C206.733 50.8609 204.928 49.4751 204.928 47.4452V39.2871C204.928 37.2572 206.733 35.871 208.608 35.871H218.354C219.079 35.871 219.671 36.4801 219.671 37.2265V37.813C219.671 38.5594 219.079 39.1684 218.354 39.1684H208.608C208.507 39.1684 208.283 39.2178 208.239 39.2871V41.7172ZM225.63 46.1371V49.5054C225.63 50.252 225.039 50.8609 224.314 50.8609H223.617C222.891 50.8609 222.3 50.252 222.3 49.5054V37.2265C222.3 36.4801 222.891 35.871 223.617 35.871H234.253C236.152 35.871 237.992 37.2741 237.992 39.3317V42.6932C237.992 44.7531 236.15 46.1371 234.253 46.1371H225.63ZM242.334 47.142L241.021 50.0734C240.801 50.5647 240.351 50.8609 239.826 50.8609H239.07C238.607 50.8609 238.208 50.636 237.959 50.2336C237.711 49.831 237.681 49.3643 237.877 48.9321L242.837 37.9933C243.133 37.3413 243.608 36.7866 244.187 36.3862C244.204 36.3748 244.218 36.3654 244.235 36.3544C244.879 35.9498 245.623 35.7539 246.374 35.7539C247.135 35.7539 247.892 35.9447 248.537 36.3695C249.137 36.7649 249.62 37.3213 249.932 37.9951L254.873 48.9338C255.068 49.3661 255.038 49.8323 254.789 50.2343C254.54 50.6364 254.142 50.8609 253.679 50.8609H252.943C252.419 50.8609 251.971 50.5673 251.75 50.0787L250.418 47.142H242.334ZM91.0831 43.8281H96.168L94.1382 39.3587C94.1348 39.3514 94.132 39.3451 94.1288 39.3374C94.0379 39.1279 93.8391 39.0513 93.6255 39.0513C93.4035 39.0513 93.2096 39.1461 93.1131 39.3587L91.0831 43.8281ZM156.455 39.1853H147.291C146.633 39.1853 145.604 39.6062 145.604 40.4206V46.3284C145.604 47.1404 146.639 47.547 147.291 47.547H156.455C157.106 47.547 158.142 47.1404 158.142 46.3284V40.4206C158.142 39.6062 157.113 39.1853 156.455 39.1853ZM190.424 39.1853H185.773C185.112 39.1853 184.087 39.6094 184.087 40.4261V46.3227C184.087 47.1372 185.118 47.547 185.773 47.547H190.424V39.1853ZM193.755 47.547H198.231C198.886 47.547 199.918 47.1372 199.918 46.3227V40.4261C199.918 39.6094 198.893 39.1853 198.231 39.1853H193.755V47.547ZM225.63 39.1853V42.823H234.253C234.365 42.823 234.629 42.7724 234.681 42.6932L234.685 39.3536C234.631 39.2362 234.362 39.1853 234.253 39.1853H225.63ZM243.832 43.8281H248.917L246.887 39.3587C246.883 39.3512 246.881 39.3449 246.877 39.3372C246.786 39.1279 246.588 39.0513 246.374 39.0513C246.152 39.0513 245.958 39.1461 245.862 39.3587L243.832 43.8281Z" fill="#6C99DA"/>
<path fill-rule="evenodd" clip-rule="evenodd" d="M54.1478 48.2093C49.3044 48.1076 31.6711 47.0348 17.8428 42.3262C7.99326 38.9723 1 34.6772 1 29.5693C1 25.0616 6.31694 21.3876 14.4505 19.4534C9.05703 21.3903 5.79551 24.2943 5.79551 27.8327C5.79551 32.18 10.8577 36.2666 18.4683 39.9636C27.7901 44.4919 47.7629 47.1206 54.1478 48.2093ZM28.1649 54.4136C28.2101 52.7453 28.7243 42.2233 29.19 37.9263C29.8864 31.5028 31.2059 23.1596 33.6052 15.9408C36.4572 7.3594 40.0774 1.19515 44.3343 1.00463C48.0909 0.836468 51.122 5.26429 52.6868 12.1751C51.1039 7.61682 48.7027 4.92491 45.7537 5.05694C42.1307 5.21915 38.6956 9.71779 35.5705 16.3898C33.0845 21.6971 31.2401 30.8315 29.994 38.0961C29.3214 42.0172 28.4959 52.4777 28.1649 54.4136ZM43.3294 28.5717C43.4462 32.8117 44.4859 48.2448 48.6877 60.3257C51.6805 68.9303 55.4816 75.0291 59.9544 74.9999C63.9016 74.9742 67.0885 70.298 68.7359 63.1656C67.0704 67.899 64.5462 70.7711 61.4478 70.7912C57.6408 70.8161 54.0337 66.4068 50.753 59.7644C46.7347 51.6284 44.3192 34.1558 43.3294 28.5717V28.5717ZM37.0876 65.1707C36.4636 65.2246 35.8325 65.2538 35.1944 65.2538C23.2764 65.2538 13.6152 55.6507 13.6152 43.8049C13.6152 37.1732 16.6437 31.2451 21.4005 27.3106C19.558 30.9642 18.5195 35.0877 18.5195 39.4529C18.5195 51.4041 26.2926 61.5506 37.0876 65.1707V65.1707ZM59.5099 59.8274C59.886 59.5653 55.7115 65.1785 60.6086 58.9632C65.5057 52.748 66.7813 40.5214 61.3506 29.92C57.274 21.9619 45.9836 20.862 55.4568 30.0303C63.6175 37.9283 63.6209 51.3914 59.5099 59.8274V59.8274ZM39.2223 13.4479C56.2203 13.4479 70 27.2268 70 44.2239C70 61.2209 56.2203 74.9999 39.2223 74.9999C22.2244 74.9999 8.44472 61.2209 8.44472 44.2239C8.44472 27.2268 22.2244 13.4479 39.2223 13.4479V13.4479Z" fill="#6C99DA" stroke="#6C99DA" stroke-width="0.2" stroke-miterlimit="22.9256"/>
</g>
</svg>
