<svg width="254" height="74" viewBox="0 0 254 74" fill="none" xmlns="http://www.w3.org/2000/svg">
<path fill-rule="evenodd" clip-rule="evenodd" d="M88.5854 46.142L87.272 49.0734C87.0519 49.5647 86.6021 49.8609 86.0766 49.8609H85.3211C84.8576 49.8609 84.4596 49.636 84.2107 49.2336C83.9618 48.831 83.9322 48.3643 84.1283 47.9321L89.0883 36.9933C89.384 36.3415 89.8594 35.7868 90.4381 35.3864C90.4549 35.3748 90.4692 35.3654 90.4865 35.3544C91.1302 34.9498 91.8736 34.7539 92.6255 34.7539C93.3867 34.7539 94.1433 34.9447 94.7881 35.3695C95.3881 35.7649 95.8711 36.3213 96.1829 36.9951L101.124 47.9338C101.319 48.3661 101.289 48.8323 101.04 49.2343C100.791 49.6364 100.393 49.8609 99.93 49.8609H99.1936C98.6701 49.8609 98.2222 49.5673 98.0008 49.0787L96.6698 46.142H88.5854ZM105.949 38.1853H100.872C100.147 38.1853 99.5552 37.5763 99.5552 36.8299V36.2265C99.5552 35.4801 100.147 34.871 100.872 34.871H114.376C115.101 34.871 115.692 35.4801 115.692 36.2265V36.8299C115.692 37.5763 115.101 38.1853 114.376 38.1853H109.279V48.5054C109.279 49.252 108.688 49.8609 107.963 49.8609H107.265C106.54 49.8609 105.949 49.252 105.949 48.5054V38.1853ZM134.713 39.4228L128.355 47.5468C128.096 47.877 127.742 48.0517 127.33 48.0517C126.918 48.0517 126.564 47.877 126.305 47.5468L119.947 39.4228V48.5054C119.947 49.252 119.356 49.8609 118.631 49.8609H117.933C117.208 49.8609 116.617 49.252 116.617 48.5054V37.4159C116.617 36.8237 116.796 36.2651 117.17 35.8149C117.493 35.4011 117.958 35.124 118.452 34.9875C118.989 34.8278 119.586 34.8423 120.116 35.0255C120.629 35.2032 121.102 35.5075 121.454 35.9343C121.463 35.9444 121.47 35.9533 121.478 35.9639L127.33 43.4607L133.182 35.9639C133.19 35.9531 133.198 35.9441 133.206 35.9338C133.559 35.5071 134.031 35.2032 134.545 35.0255C135.083 34.8392 135.663 34.8309 136.185 34.9812C136.68 35.113 137.125 35.3877 137.464 35.7835C137.854 36.2401 138.043 36.8101 138.043 37.4159V48.5054C138.043 49.252 137.452 49.8609 136.727 49.8609H136.03C135.304 49.8609 134.713 49.252 134.713 48.5054V39.4228ZM155.455 49.8609H146.291C143.788 49.8609 141.293 48.0681 141.293 45.3284V39.4206C141.293 36.6831 143.785 34.871 146.291 34.871H155.455C157.961 34.871 160.453 36.6831 160.453 39.4206V45.3284C160.453 48.0681 157.958 49.8609 155.455 49.8609ZM178.095 36.2265V36.8299C178.095 37.5763 177.504 38.1853 176.779 38.1853H167.111C166.453 38.1853 165.424 38.6062 165.424 39.4206V45.3284C165.424 46.1404 166.459 46.547 167.111 46.547H176.779C177.504 46.547 178.095 47.1561 178.095 47.9025V48.5054C178.095 49.252 177.504 49.8609 176.779 49.8609H167.111C164.608 49.8609 162.113 48.0681 162.113 45.3284V39.4206C162.113 36.6831 164.605 34.871 167.111 34.871H176.779C177.504 34.871 178.095 35.4801 178.095 36.2265ZM189.441 49.8609H184.773C182.268 49.8609 179.776 48.0631 179.776 45.3227V39.4261C179.776 36.6879 182.265 34.871 184.773 34.871H189.511C189.702 34.3625 190.181 34 190.741 34H191.438C191.998 34 192.477 34.3625 192.668 34.871H197.231C199.74 34.871 202.229 36.6879 202.229 39.4261V45.3227C202.229 48.0633 199.737 49.8609 197.231 49.8609H192.738C192.637 50.5052 192.092 51 191.438 51H190.741C190.087 51 189.542 50.5052 189.441 49.8609ZM207.239 40.7172H216.618C217.343 40.7172 217.934 41.3263 217.934 42.0729V42.6761C217.934 43.4225 217.343 44.0315 216.618 44.0315H207.236L207.23 46.4011C207.285 46.5022 207.509 46.547 207.608 46.547H217.354C218.079 46.547 218.671 47.1561 218.671 47.9025V48.5054C218.671 49.252 218.079 49.8609 217.354 49.8609H207.608C205.733 49.8609 203.928 48.4751 203.928 46.4452V38.2871C203.928 36.2572 205.733 34.871 207.608 34.871H217.354C218.079 34.871 218.671 35.4801 218.671 36.2265V36.813C218.671 37.5594 218.079 38.1684 217.354 38.1684H207.608C207.507 38.1684 207.283 38.2178 207.239 38.2871V40.7172ZM224.63 45.1371V48.5054C224.63 49.252 224.039 49.8609 223.314 49.8609H222.617C221.891 49.8609 221.3 49.252 221.3 48.5054V36.2265C221.3 35.4801 221.891 34.871 222.617 34.871H233.253C235.152 34.871 236.992 36.2741 236.992 38.3317V41.6932C236.992 43.7531 235.15 45.1371 233.253 45.1371H224.63ZM241.334 46.142L240.021 49.0734C239.801 49.5647 239.351 49.8609 238.826 49.8609H238.07C237.607 49.8609 237.208 49.636 236.959 49.2336C236.711 48.831 236.681 48.3643 236.877 47.9321L241.837 36.9933C242.133 36.3413 242.608 35.7866 243.187 35.3862C243.204 35.3748 243.218 35.3654 243.235 35.3544C243.879 34.9498 244.623 34.7539 245.374 34.7539C246.135 34.7539 246.892 34.9447 247.537 35.3695C248.137 35.7649 248.62 36.3213 248.932 36.9951L253.873 47.9338C254.068 48.3661 254.038 48.8323 253.789 49.2343C253.54 49.6364 253.142 49.8609 252.679 49.8609H251.943C251.419 49.8609 250.971 49.5673 250.75 49.0787L249.418 46.142H241.334ZM90.0831 42.8281H95.168L93.1382 38.3587C93.1348 38.3514 93.132 38.3451 93.1288 38.3374C93.0379 38.1279 92.8391 38.0513 92.6255 38.0513C92.4035 38.0513 92.2096 38.1461 92.1131 38.3587L90.0831 42.8281ZM155.455 38.1853H146.291C145.633 38.1853 144.604 38.6062 144.604 39.4206V45.3284C144.604 46.1404 145.639 46.547 146.291 46.547H155.455C156.106 46.547 157.142 46.1404 157.142 45.3284V39.4206C157.142 38.6062 156.113 38.1853 155.455 38.1853ZM189.424 38.1853H184.773C184.112 38.1853 183.087 38.6094 183.087 39.4261V45.3227C183.087 46.1372 184.118 46.547 184.773 46.547H189.424V38.1853ZM192.755 46.547H197.231C197.886 46.547 198.918 46.1372 198.918 45.3227V39.4261C198.918 38.6094 197.893 38.1853 197.231 38.1853H192.755V46.547ZM224.63 38.1853V41.823H233.253C233.365 41.823 233.629 41.7724 233.681 41.6932L233.685 38.3536C233.631 38.2362 233.362 38.1853 233.253 38.1853H224.63ZM242.832 42.8281H247.917L245.887 38.3587C245.883 38.3512 245.881 38.3449 245.877 38.3372C245.786 38.1279 245.588 38.0513 245.374 38.0513C245.152 38.0513 244.958 38.1461 244.862 38.3587L242.832 42.8281Z" fill="#1A4E99"/>
<path fill-rule="evenodd" clip-rule="evenodd" d="M38.2221 12.4482C55.2201 12.4482 69 26.2272 69 43.2241C69 60.2213 55.2201 74.0003 38.2221 74.0003C21.2237 74.0003 7.44385 60.2213 7.44385 43.2241C7.44385 26.2272 21.2237 12.4482 38.2221 12.4482Z" fill="url(#paint0_radial_401_2962)"/>
<path fill-rule="evenodd" clip-rule="evenodd" d="M58.511 58.8277C58.8871 58.5657 54.7125 64.1789 59.6097 57.9636C64.5068 51.7483 65.7825 39.5217 60.3517 28.9205C56.2749 20.9623 44.9845 19.8625 54.4577 29.0307C62.6185 36.9287 62.6221 50.3918 58.511 58.8277Z" fill="white" fill-opacity="0.501961"/>
<path fill-rule="evenodd" clip-rule="evenodd" d="M36.0883 64.1707C35.4644 64.2248 34.8333 64.2538 34.195 64.2538C22.2771 64.2538 12.6157 54.6507 12.6157 42.805C12.6157 36.1732 15.6441 30.2451 20.401 26.3105C18.5586 29.9642 17.5201 34.0877 17.5201 38.453C17.5201 50.4041 25.2931 60.5506 36.0883 64.1707Z" fill="white" fill-opacity="0.501961"/>
<path fill-rule="evenodd" clip-rule="evenodd" d="M42.3296 27.5713C42.4465 31.8112 43.4862 47.2445 47.688 59.3253C50.6808 67.9299 54.482 74.0285 58.9547 73.9996C62.902 73.9737 66.0889 69.2974 67.7364 62.1651C66.071 66.8984 63.5468 69.7707 60.4483 69.7908C56.6412 69.8157 53.034 65.4063 49.7534 58.7639C45.735 50.6281 43.3195 33.1555 42.3296 27.5713Z" fill="#216FB5"/>
<path fill-rule="evenodd" clip-rule="evenodd" d="M27.1655 53.4136C27.2105 51.7452 27.7248 41.2232 28.1906 36.9264C28.8869 30.5027 30.2064 22.1594 32.6056 14.9406C35.4578 6.3593 39.0781 0.194972 43.335 0.00462959C47.0917 -0.163566 50.1227 4.26416 51.6875 11.1752C50.1048 6.61677 47.7034 3.92495 44.7544 4.05698C41.1315 4.2191 37.6964 8.71763 34.5712 15.3897C32.0849 20.697 30.2406 29.8314 28.9944 37.0959C28.3219 41.0173 27.4965 51.4775 27.1655 53.4136Z" fill="#1A4E99"/>
<path fill-rule="evenodd" clip-rule="evenodd" d="M53.1485 47.2088C48.3049 47.1073 30.6714 46.0345 16.8428 41.326C6.99346 37.972 0 33.6768 0 28.5689C0 24.0612 5.31703 20.3873 13.4506 18.4531C8.05717 20.3899 4.79565 23.2939 4.79565 26.8323C4.79565 31.1797 9.85785 35.2663 17.4685 38.9633C26.7905 43.4916 46.7636 46.1203 53.1485 47.2088Z" fill="#1A4E99"/>
<path fill-rule="evenodd" clip-rule="evenodd" d="M16.1448 31.7562C22.2491 21.0919 34.2926 15.7076 43.0448 19.7299C51.7972 23.7523 53.9438 35.6582 47.8395 46.3225C41.7352 56.9867 29.6916 62.3711 20.9394 58.3488C12.1871 54.3264 10.0405 42.4205 16.1448 31.7562Z" fill="white" fill-opacity="0.15"/>
<defs>
<radialGradient id="paint0_radial_401_2962" cx="0" cy="0" r="1" gradientUnits="userSpaceOnUse" gradientTransform="translate(54.2272 57.3854) rotate(-10.4683) scale(10.584 10.5832)">
<stop stop-color="#D9FDEF"/>
<stop offset="0.258824" stop-color="#D2F4F5"/>
<stop offset="1" stop-color="#216FB5"/>
</radialGradient>
</defs>
</svg>
