<svg width="69" height="69" viewBox="0 0 69 69" fill="none" xmlns="http://www.w3.org/2000/svg">
<path d="M2 38H17" stroke="#132642" stroke-width="3" stroke-linecap="round" stroke-linejoin="round"/>
<path d="M17 47H8" stroke="#132642" stroke-width="3" stroke-linecap="round" stroke-linejoin="round"/>
<path d="M17 56H14" stroke="#132642" stroke-width="3" stroke-linecap="round" stroke-linejoin="round"/>
<path d="M28.1543 16.9551V30.9081L39.1223 37.5951" stroke="#132642" stroke-width="3" stroke-linecap="round" stroke-linejoin="round"/>
<path d="M2.17676 26C3.67076 12.503 15.1038 2 28.9998 2C43.9128 2 55.9998 14.087 55.9998 29C55.9998 43.913 43.9128 56 28.9998 56" stroke="#132642" stroke-width="3" stroke-linecap="round" stroke-linejoin="round"/>
<g opacity="0.8">
<path d="M41 60.9878H37C34.79 60.9878 33 59.1978 33 56.9878V36.9878C33 34.7778 34.79 32.9878 37 32.9878H65C67.21 32.9878 69 34.7778 69 36.9878V56.9878C69 59.1978 67.21 60.9878 65 60.9878H52.75L44.33 68.4778C43.04 69.6258 41 68.7098 41 66.9838V60.9878Z" fill="#1A4E99"/>
<path d="M41 43.5H61" stroke="white" stroke-width="3" stroke-linecap="round" stroke-linejoin="round"/>
<path d="M41 50.5H55" stroke="white" stroke-width="3" stroke-linecap="round" stroke-linejoin="round"/>
</g>
</svg>
