<svg width="20" height="20" viewBox="0 0 20 20" fill="none" xmlns="http://www.w3.org/2000/svg">
<path d="M15.0898 19H4.9098C4.0078 19 3.2178 18.396 2.9798 17.526L1.0708 10.526C0.724798 9.254 1.6818 8 3.0008 8H16.9988C18.3178 8 19.2758 9.254 18.9288 10.526L17.0198 17.526C16.7818 18.396 15.9918 19 15.0898 19Z" stroke="white" stroke-width="2" stroke-linecap="round" stroke-linejoin="round"/>
<path d="M7.5 12.5V14.5" stroke="white" stroke-width="2" stroke-linecap="round" stroke-linejoin="round"/>
<path d="M12.5 12.5V14.5" stroke="white" stroke-width="2" stroke-linecap="round" stroke-linejoin="round"/>
<path d="M17 7.99975H16.999L11.498 1.68675C10.7 0.77075 9.289 0.77075 8.493 1.68875C6.641 3.82275 4.568 6.23175 3.001 7.99975H3H3.001H16.999" stroke="white" stroke-width="2" stroke-linecap="round" stroke-linejoin="round"/>
</svg>
